<svg width="110" height="102" viewBox="0 0 110 102" fill="none" xmlns="http://www.w3.org/2000/svg">
<path d="M82.5 55.2415H59.5833V76.4915C59.5833 77.6187 59.1004 78.6997 58.2409 79.4967C57.3814 80.2937 56.2156 80.7415 55 80.7415C53.7844 80.7415 52.6186 80.2937 51.7591 79.4967C50.8995 78.6997 50.4167 77.6187 50.4167 76.4915V55.2415H27.5C26.2844 55.2415 25.1186 54.7937 24.2591 53.9967C23.3996 53.1997 22.9167 52.1187 22.9167 50.9915C22.9167 49.8643 23.3996 48.7833 24.2591 47.9863C25.1186 47.1893 26.2844 46.7415 27.5 46.7415H50.4167V25.4915C50.4167 24.3643 50.8995 23.2833 51.7591 22.4863C52.6186 21.6893 53.7844 21.2415 55 21.2415C56.2156 21.2415 57.3814 21.6893 58.2409 22.4863C59.1004 23.2833 59.5833 24.3643 59.5833 25.4915V46.7415H82.5C83.7156 46.7415 84.8814 47.1893 85.7409 47.9863C86.6004 48.7833 87.0833 49.8643 87.0833 50.9915C87.0833 52.1187 86.6004 53.1997 85.7409 53.9967C84.8814 54.7937 83.7156 55.2415 82.5 55.2415Z" fill="white"/>
</svg>
